<svg id="visual" viewBox="0 0 900 600" width="900" height="600" xmlns="http://www.w3.org/2000/svg" xmlns:xlink="http://www.w3.org/1999/xlink" version="1.1"><rect x="0" y="0" width="900" height="600" fill="#001829"></rect><g fill="#297EA6"><path d="M0 -89.7L20.1 -27.7L85.3 -27.7L32.6 10.6L52.7 72.5L0 34.2L-52.7 72.5L-32.6 10.6L-85.3 -27.7L-20.1 -27.7Z" transform="translate(628 168)"></path><path d="M0 -62.3L14 -19.2L59.2 -19.2L22.6 7.4L36.6 50.4L0 23.8L-36.6 50.4L-22.6 7.4L-59.2 -19.2L-14 -19.2Z" transform="translate(204 83)"></path><path d="M0 -67L15 -20.7L63.7 -20.7L24.3 7.9L39.4 54.2L0 25.6L-39.4 54.2L-24.3 7.9L-63.7 -20.7L-15 -20.7Z" transform="translate(45 382)"></path><path d="M0 -68L15.3 -21L64.6 -21L24.7 8L39.9 55L0 26L-39.9 55L-24.7 8L-64.6 -21L-15.3 -21Z" transform="translate(363 289)"></path><path d="M0 -84.9L19.1 -26.2L80.8 -26.2L30.9 10L49.9 68.7L0 32.4L-49.9 68.7L-30.9 10L-80.8 -26.2L-19.1 -26.2Z" transform="translate(895 347)"></path><path d="M0 -67L15 -20.7L63.7 -20.7L24.3 7.9L39.4 54.2L0 25.6L-39.4 54.2L-24.3 7.9L-63.7 -20.7L-15 -20.7Z" transform="translate(796 593)"></path><path d="M0 -83.1L18.6 -25.7L79 -25.7L30.2 9.8L48.8 67.2L0 31.7L-48.8 67.2L-30.2 9.8L-79 -25.7L-18.6 -25.7Z" transform="translate(606 397)"></path><path d="M0 -79.3L17.8 -24.5L75.4 -24.5L28.8 9.4L46.6 64.1L0 30.3L-46.6 64.1L-28.8 9.4L-75.4 -24.5L-17.8 -24.5Z" transform="translate(410 509)"></path><path d="M0 -68L15.3 -21L64.6 -21L24.7 8L39.9 55L0 26L-39.9 55L-24.7 8L-64.6 -21L-15.3 -21Z" transform="translate(815 127)"></path><path d="M0 -65.1L14.6 -20.1L61.9 -20.1L23.7 7.7L38.3 52.7L0 24.9L-38.3 52.7L-23.7 7.7L-61.9 -20.1L-14.6 -20.1Z" transform="translate(164 541)"></path><path d="M0 -71.7L16.1 -22.2L68.2 -22.2L26.1 8.5L42.2 58L0 27.4L-42.2 58L-26.1 8.5L-68.2 -22.2L-16.1 -22.2Z" transform="translate(17 115)"></path></g></svg>