<svg id="visual" viewBox="0 0 900 600" width="900" height="600" xmlns="http://www.w3.org/2000/svg" xmlns:xlink="http://www.w3.org/1999/xlink" version="1.1"><g stroke-width="1" stroke-linejoin="bevel"><path d="M434 339.9L378 329.9L353 426.6Z" fill="#0c2435" stroke="#0c2435"></path><path d="M353 426.6L450 421.6L434 339.9Z" fill="#19435d" stroke="#19435d"></path><path d="M378 329.9L279 327.9L353 426.6Z" fill="#00101c" stroke="#00101c"></path><path d="M370 525.3L459 505.3L450 421.6Z" fill="#205a7a" stroke="#205a7a"></path><path d="M272 506.3L370 525.3L353 426.6Z" fill="#1d4e6b" stroke="#1d4e6b"></path><path d="M353 426.6L370 525.3L450 421.6Z" fill="#277297" stroke="#277297"></path><path d="M434 339.9L373 238.1L378 329.9Z" fill="#00101c" stroke="#00101c"></path><path d="M378 329.9L284 245.1L279 327.9Z" fill="#277297" stroke="#277297"></path><path d="M279 327.9L251 428.6L353 426.6Z" fill="#081a28" stroke="#081a28"></path><path d="M546 342.9L468 250.1L434 339.9Z" fill="#1d4e6b" stroke="#1d4e6b"></path><path d="M434 339.9L468 250.1L373 238.1Z" fill="#112e42" stroke="#112e42"></path><path d="M546 342.9L434 339.9L450 421.6Z" fill="#081a28" stroke="#081a28"></path><path d="M459 505.3L549 412.6L450 421.6Z" fill="#297ea6" stroke="#297ea6"></path><path d="M549 412.6L546 342.9L450 421.6Z" fill="#19435d" stroke="#19435d"></path><path d="M251 428.6L272 506.3L353 426.6Z" fill="#297ea6" stroke="#297ea6"></path><path d="M373 238.1L284 245.1L378 329.9Z" fill="#205a7a" stroke="#205a7a"></path><path d="M179 331.9L187 446.6L251 428.6Z" fill="#205a7a" stroke="#205a7a"></path><path d="M546 342.9L549 262.1L468 250.1Z" fill="#1d4e6b" stroke="#1d4e6b"></path><path d="M623 360.9L549 262.1L546 342.9Z" fill="#112e42" stroke="#112e42"></path><path d="M456 600L542 531.3L459 505.3Z" fill="#277297" stroke="#277297"></path><path d="M459 505.3L542 531.3L549 412.6Z" fill="#00101c" stroke="#00101c"></path><path d="M461 151.4L358 176.4L373 238.1Z" fill="#205a7a" stroke="#205a7a"></path><path d="M373 238.1L358 176.4L284 245.1Z" fill="#081a28" stroke="#081a28"></path><path d="M461 151.4L373 238.1L468 250.1Z" fill="#0c2435" stroke="#0c2435"></path><path d="M254 600L380 600L370 525.3Z" fill="#297ea6" stroke="#297ea6"></path><path d="M370 525.3L456 600L459 505.3Z" fill="#0c2435" stroke="#0c2435"></path><path d="M179 331.9L251 428.6L279 327.9Z" fill="#0c2435" stroke="#0c2435"></path><path d="M251 428.6L187 446.6L272 506.3Z" fill="#081a28" stroke="#081a28"></path><path d="M272 506.3L254 600L370 525.3Z" fill="#19435d" stroke="#19435d"></path><path d="M380 600L456 600L370 525.3Z" fill="#246688" stroke="#246688"></path><path d="M175 244.1L279 327.9L284 245.1Z" fill="#297ea6" stroke="#297ea6"></path><path d="M175 244.1L179 331.9L279 327.9Z" fill="#277297" stroke="#277297"></path><path d="M628 420.6L623 360.9L549 412.6Z" fill="#205a7a" stroke="#205a7a"></path><path d="M549 412.6L623 360.9L546 342.9Z" fill="#19435d" stroke="#19435d"></path><path d="M609 513.3L628 420.6L549 412.6Z" fill="#0c2435" stroke="#0c2435"></path><path d="M547 151.4L461 151.4L468 250.1Z" fill="#246688" stroke="#246688"></path><path d="M187 446.6L198 530.3L272 506.3Z" fill="#112e42" stroke="#112e42"></path><path d="M542 531.3L609 513.3L549 412.6Z" fill="#277297" stroke="#277297"></path><path d="M622 600L609 513.3L542 531.3Z" fill="#081a28" stroke="#081a28"></path><path d="M289 83.7L281 159.4L358 176.4Z" fill="#00101c" stroke="#00101c"></path><path d="M358 176.4L281 159.4L284 245.1Z" fill="#15384f" stroke="#15384f"></path><path d="M198 530.3L254 600L272 506.3Z" fill="#1d4e6b" stroke="#1d4e6b"></path><path d="M456 600L547 600L542 531.3Z" fill="#246688" stroke="#246688"></path><path d="M174 181.4L175 244.1L284 245.1Z" fill="#00101c" stroke="#00101c"></path><path d="M710 344.9L630 250.1L623 360.9Z" fill="#00101c" stroke="#00101c"></path><path d="M623 360.9L630 250.1L549 262.1Z" fill="#0c2435" stroke="#0c2435"></path><path d="M549 262.1L547 151.4L468 250.1Z" fill="#112e42" stroke="#112e42"></path><path d="M611 184.4L547 151.4L549 262.1Z" fill="#19435d" stroke="#19435d"></path><path d="M630 250.1L611 184.4L549 262.1Z" fill="#0c2435" stroke="#0c2435"></path><path d="M179 331.9L104 441.6L187 446.6Z" fill="#0c2435" stroke="#0c2435"></path><path d="M187 446.6L98 504.3L198 530.3Z" fill="#277297" stroke="#277297"></path><path d="M198 530.3L178 600L254 600Z" fill="#19435d" stroke="#19435d"></path><path d="M91 343.9L104 441.6L179 331.9Z" fill="#19435d" stroke="#19435d"></path><path d="M449 88.7L380 88.7L461 151.4Z" fill="#19435d" stroke="#19435d"></path><path d="M461 151.4L380 88.7L358 176.4Z" fill="#246688" stroke="#246688"></path><path d="M519 65.7L449 88.7L461 151.4Z" fill="#081a28" stroke="#081a28"></path><path d="M519 65.7L461 151.4L547 151.4Z" fill="#297ea6" stroke="#297ea6"></path><path d="M161 84.7L174 181.4L281 159.4Z" fill="#0c2435" stroke="#0c2435"></path><path d="M281 159.4L174 181.4L284 245.1Z" fill="#1d4e6b" stroke="#1d4e6b"></path><path d="M175 244.1L91 343.9L179 331.9Z" fill="#246688" stroke="#246688"></path><path d="M98 504.3L178 600L198 530.3Z" fill="#277297" stroke="#277297"></path><path d="M88 237.1L91 343.9L175 244.1Z" fill="#297ea6" stroke="#297ea6"></path><path d="M547 600L622 600L542 531.3Z" fill="#297ea6" stroke="#297ea6"></path><path d="M714 426.6L710 344.9L628 420.6Z" fill="#19435d" stroke="#19435d"></path><path d="M628 420.6L710 344.9L623 360.9Z" fill="#00101c" stroke="#00101c"></path><path d="M630 250.1L709 157.4L611 184.4Z" fill="#19435d" stroke="#19435d"></path><path d="M714 426.6L628 420.6L609 513.3Z" fill="#00101c" stroke="#00101c"></path><path d="M722 522.3L714 426.6L609 513.3Z" fill="#19435d" stroke="#19435d"></path><path d="M380 88.7L289 83.7L358 176.4Z" fill="#277297" stroke="#277297"></path><path d="M355 0L289 83.7L380 88.7Z" fill="#297ea6" stroke="#297ea6"></path><path d="M0 430.6L98 504.3L104 441.6Z" fill="#00101c" stroke="#00101c"></path><path d="M104 441.6L98 504.3L187 446.6Z" fill="#1d4e6b" stroke="#1d4e6b"></path><path d="M174 181.4L88 237.1L175 244.1Z" fill="#081a28" stroke="#081a28"></path><path d="M80 154.4L88 237.1L174 181.4Z" fill="#0c2435" stroke="#0c2435"></path><path d="M618 104.7L519 65.7L547 151.4Z" fill="#1d4e6b" stroke="#1d4e6b"></path><path d="M460 0L355 0L380 88.7Z" fill="#00101c" stroke="#00101c"></path><path d="M622 600L722 522.3L609 513.3Z" fill="#112e42" stroke="#112e42"></path><path d="M806 326.9L731 267.1L710 344.9Z" fill="#0c2435" stroke="#0c2435"></path><path d="M806 326.9L710 344.9L714 426.6Z" fill="#081a28" stroke="#081a28"></path><path d="M710 344.9L731 267.1L630 250.1Z" fill="#112e42" stroke="#112e42"></path><path d="M611 184.4L618 104.7L547 151.4Z" fill="#00101c" stroke="#00101c"></path><path d="M709 157.4L618 104.7L611 184.4Z" fill="#246688" stroke="#246688"></path><path d="M98 504.3L98 600L178 600Z" fill="#1d4e6b" stroke="#1d4e6b"></path><path d="M0 510.3L98 600L98 504.3Z" fill="#1d4e6b" stroke="#1d4e6b"></path><path d="M0 430.6L104 441.6L91 343.9Z" fill="#246688" stroke="#246688"></path><path d="M259 0L161 84.7L289 83.7Z" fill="#081a28" stroke="#081a28"></path><path d="M289 83.7L161 84.7L281 159.4Z" fill="#19435d" stroke="#19435d"></path><path d="M731 267.1L709 157.4L630 250.1Z" fill="#277297" stroke="#277297"></path><path d="M460 0L449 88.7L519 65.7Z" fill="#00101c" stroke="#00101c"></path><path d="M460 0L380 88.7L449 88.7Z" fill="#297ea6" stroke="#297ea6"></path><path d="M528 0L460 0L519 65.7Z" fill="#0c2435" stroke="#0c2435"></path><path d="M528 0L519 65.7L642 0Z" fill="#00101c" stroke="#00101c"></path><path d="M161 84.7L80 154.4L174 181.4Z" fill="#15384f" stroke="#15384f"></path><path d="M0 337.9L0 430.6L91 343.9Z" fill="#0c2435" stroke="#0c2435"></path><path d="M0 337.9L91 343.9L0 254.1Z" fill="#081a28" stroke="#081a28"></path><path d="M0 254.1L91 343.9L88 237.1Z" fill="#246688" stroke="#246688"></path><path d="M622 600L737 600L722 522.3Z" fill="#112e42" stroke="#112e42"></path><path d="M824 448.6L806 326.9L714 426.6Z" fill="#1d4e6b" stroke="#1d4e6b"></path><path d="M642 0L519 65.7L618 104.7Z" fill="#0c2435" stroke="#0c2435"></path><path d="M161 84.7L81 98.7L80 154.4Z" fill="#277297" stroke="#277297"></path><path d="M355 0L259 0L289 83.7Z" fill="#205a7a" stroke="#205a7a"></path><path d="M806 510.3L714 426.6L722 522.3Z" fill="#112e42" stroke="#112e42"></path><path d="M731 267.1L800 258.1L709 157.4Z" fill="#246688" stroke="#246688"></path><path d="M0 430.6L0 510.3L98 504.3Z" fill="#246688" stroke="#246688"></path><path d="M0 180.4L0 254.1L88 237.1Z" fill="#112e42" stroke="#112e42"></path><path d="M806 326.9L800 258.1L731 267.1Z" fill="#19435d" stroke="#19435d"></path><path d="M96 0L81 98.7L161 84.7Z" fill="#19435d" stroke="#19435d"></path><path d="M80 154.4L0 180.4L88 237.1Z" fill="#277297" stroke="#277297"></path><path d="M737 600L806 510.3L722 522.3Z" fill="#081a28" stroke="#081a28"></path><path d="M806 510.3L824 448.6L714 426.6Z" fill="#112e42" stroke="#112e42"></path><path d="M900 184.4L829 151.4L800 258.1Z" fill="#297ea6" stroke="#297ea6"></path><path d="M822 103.7L719 92.7L709 157.4Z" fill="#246688" stroke="#246688"></path><path d="M709 157.4L719 92.7L618 104.7Z" fill="#0c2435" stroke="#0c2435"></path><path d="M0 76.7L0 180.4L80 154.4Z" fill="#19435d" stroke="#19435d"></path><path d="M259 0L168 0L161 84.7Z" fill="#297ea6" stroke="#297ea6"></path><path d="M81 98.7L0 76.7L80 154.4Z" fill="#00101c" stroke="#00101c"></path><path d="M0 510.3L0 600L98 600Z" fill="#277297" stroke="#277297"></path><path d="M719 92.7L642 0L618 104.7Z" fill="#277297" stroke="#277297"></path><path d="M737 600L829 600L806 510.3Z" fill="#00101c" stroke="#00101c"></path><path d="M900 514.3L900 428.6L824 448.6Z" fill="#19435d" stroke="#19435d"></path><path d="M168 0L96 0L161 84.7Z" fill="#297ea6" stroke="#297ea6"></path><path d="M900 243.1L800 258.1L806 326.9Z" fill="#15384f" stroke="#15384f"></path><path d="M800 258.1L829 151.4L709 157.4Z" fill="#15384f" stroke="#15384f"></path><path d="M719 92.7L717 0L642 0Z" fill="#19435d" stroke="#19435d"></path><path d="M900 353.9L806 326.9L824 448.6Z" fill="#0c2435" stroke="#0c2435"></path><path d="M794 0L717 0L719 92.7Z" fill="#277297" stroke="#277297"></path><path d="M96 0L0 76.7L81 98.7Z" fill="#1d4e6b" stroke="#1d4e6b"></path><path d="M900 428.6L900 353.9L824 448.6Z" fill="#00101c" stroke="#00101c"></path><path d="M900 514.3L824 448.6L806 510.3Z" fill="#1d4e6b" stroke="#1d4e6b"></path><path d="M900 64.7L822 103.7L829 151.4Z" fill="#297ea6" stroke="#297ea6"></path><path d="M829 151.4L822 103.7L709 157.4Z" fill="#297ea6" stroke="#297ea6"></path><path d="M829 600L900 514.3L806 510.3Z" fill="#246688" stroke="#246688"></path><path d="M900 353.9L900 243.1L806 326.9Z" fill="#1d4e6b" stroke="#1d4e6b"></path><path d="M900 243.1L900 184.4L800 258.1Z" fill="#277297" stroke="#277297"></path><path d="M829 600L900 600L900 514.3Z" fill="#297ea6" stroke="#297ea6"></path><path d="M96 0L0 0L0 76.7Z" fill="#15384f" stroke="#15384f"></path><path d="M822 103.7L794 0L719 92.7Z" fill="#277297" stroke="#277297"></path><path d="M900 64.7L794 0L822 103.7Z" fill="#1d4e6b" stroke="#1d4e6b"></path><path d="M900 184.4L900 64.7L829 151.4Z" fill="#112e42" stroke="#112e42"></path><path d="M900 64.7L900 0L794 0Z" fill="#297ea6" stroke="#297ea6"></path></g></svg>